<!-- Copyright 2018 Matt Lucock <hello@lucock.com>. All rights reserved. -->
<svg xmlns="http://www.w3.org/2000/svg" width="669" height="236">
  <circle cx="25" cy="25" r="25" fill="#eb3b5a" />
  <circle cx="25" cy="87" r="25" fill="#fc5c65" />
  <circle cx="25" cy="149" r="25" fill="#fd9644" />
  <circle cx="25" cy="211" r="25" fill="#fa8231" />

  <circle cx="87" cy="56" r="25" fill="#f7b731" />
  <circle cx="87" cy="118" r="25" fill="#fed330" />
  <circle cx="87" cy="180" r="25" fill="#f7b731" />

  <circle cx="149" cy="87" r="25" fill="#20bf6b" />
  <circle cx="149" cy="149" r="25" fill="#20bf6b" />

  <circle cx="211" cy="56" r="25" fill="#2d98da" />
  <circle cx="211" cy="118" r="25" fill="#45aaf2" />
  <circle cx="211" cy="180" r="25" fill="#2d98da" />

  <circle cx="273" cy="25" r="25" fill="#8854d0" />
  <circle cx="273" cy="87" r="25" fill="#a55eea" />
  <circle cx="273" cy="149" r="25" fill="#778ca3" />
  <circle cx="273" cy="211" r="25" fill="#4b6584" />

  <path fill="rgb(51, 51, 51)" d="M400.24 151.46L400.24 151.46L400.24 151.46Q392.41 151.46 385.93 148.57L385.93 148.57L385.93 148.57Q379.44 145.68 375.05 139.67L375.05 139.67L374.17 139.67L374.17 139.67Q375.05 146.70 375.05 153.00L375.05 153.00L375.05 186.04L362.89 186.04L362.89 69.73L372.78 69.73L374.46 80.71L375.05 80.71L375.05 80.71Q379.74 74.12 385.96 71.19L385.96 71.19L385.96 71.19Q392.19 68.26 400.24 68.26L400.24 68.26L400.24 68.26Q416.21 68.26 424.89 79.17L424.89 79.17L424.89 79.17Q433.57 90.09 433.57 109.79L433.57 109.79L433.57 109.79Q433.57 129.57 424.74 140.52L424.74 140.52L424.74 140.52Q415.92 151.46 400.24 151.46ZM398.49 78.59L398.49 78.59L398.49 78.59Q386.18 78.59 380.69 85.40L380.69 85.40L380.69 85.40Q375.20 92.21 375.05 107.08L375.05 107.08L375.05 109.79L375.05 109.79Q375.05 126.71 380.69 134.00L380.69 134.00L380.69 134.00Q386.33 141.28 398.78 141.28L398.78 141.28L398.78 141.28Q409.18 141.28 415.08 132.86L415.08 132.86L415.08 132.86Q420.97 124.44 420.97 109.64L420.97 109.64L420.97 109.64Q420.97 94.63 415.08 86.61L415.08 86.61L415.08 86.61Q409.18 78.59 398.49 78.59ZM453.93 69.73L466.24 69.73L466.24 121.80L466.24 121.80Q466.24 131.62 470.70 136.45L470.70 136.45L470.70 136.45Q475.17 141.28 484.69 141.28L484.69 141.28L484.69 141.28Q497.29 141.28 503.11 134.40L503.11 134.40L503.11 134.40Q508.94 127.51 508.94 111.91L508.94 111.91L508.94 69.73L521.09 69.73L521.09 150L511.06 150L509.30 139.23L508.64 139.23L508.64 139.23Q504.91 145.17 498.28 148.32L498.28 148.32L498.28 148.32Q491.65 151.46 483.15 151.46L483.15 151.46L483.15 151.46Q468.51 151.46 461.22 144.51L461.22 144.51L461.22 144.51Q453.93 137.55 453.93 122.24L453.93 122.24L453.93 69.73ZM583.50 68.26L583.50 68.26L583.50 68.26Q588.84 68.26 593.09 69.14L593.09 69.14L591.41 80.42L591.41 80.42Q586.43 79.32 582.62 79.32L582.62 79.32L582.62 79.32Q572.88 79.32 565.95 87.23L565.95 87.23L565.95 87.23Q559.03 95.14 559.03 106.93L559.03 106.93L559.03 150L546.88 150L546.88 69.73L556.91 69.73L558.30 84.59L558.89 84.59L558.89 84.59Q563.35 76.76 569.65 72.51L569.65 72.51L569.65 72.51Q575.95 68.26 583.50 68.26ZM639.01 151.46L639.01 151.46L639.01 151.46Q621.22 151.46 610.93 140.63L610.93 140.63L610.93 140.63Q600.63 129.79 600.63 110.52L600.63 110.52L600.63 110.52Q600.63 91.11 610.19 79.69L610.19 79.69L610.19 79.69Q619.75 68.26 635.86 68.26L635.86 68.26L635.86 68.26Q650.95 68.26 659.74 78.19L659.74 78.19L659.74 78.19Q668.53 88.11 668.53 104.37L668.53 104.37L668.53 112.06L613.23 112.06L613.23 112.06Q613.60 126.20 620.37 133.52L620.37 133.52L620.37 133.52Q627.15 140.84 639.45 140.84L639.45 140.84L639.45 140.84Q652.42 140.84 665.09 135.42L665.09 135.42L665.09 146.26L665.09 146.26Q658.64 149.05 652.89 150.26L652.89 150.26L652.89 150.26Q647.14 151.46 639.01 151.46ZM635.72 78.44L635.72 78.44L635.72 78.44Q626.05 78.44 620.30 84.74L620.30 84.74L620.30 84.74Q614.55 91.04 613.53 102.17L613.53 102.17L655.49 102.17L655.49 102.17Q655.49 90.67 650.37 84.56L650.37 84.56L650.37 84.56Q645.24 78.44 635.72 78.44Z"/>
</svg>
